<?xml version="1.0" encoding="UTF-8"?>
<svg xmlns="http://www.w3.org/2000/svg" xmlns:xlink="http://www.w3.org/1999/xlink" width="861.99pt" height="862pt" viewBox="0 0 861.99 862" version="1.1">
<defs>
<clipPath id="clip1">
  <path d="M 0 0 L 861.988281 0 L 861.988281 862 L 0 862 Z M 0 0 "/>
</clipPath>
</defs>
<g id="surface1">
<g clip-path="url(#clip1)" clip-rule="nonzero">
<path style=" stroke:none;fill-rule:nonzero;fill:rgb(23.498535%,24.299622%,23.098755%);fill-opacity:1;" d="M 861.992188 430.871094 C 861.992188 669.003906 669.003906 862 430.992188 862 C 192.992188 862 0 669.003906 0 430.871094 C 0 192.996094 192.992188 0 430.992188 0 C 669.003906 0 861.992188 192.996094 861.992188 430.871094 "/>
</g>
<path style=" stroke:none;fill-rule:evenodd;fill:rgb(100%,100%,100%);fill-opacity:1;" d="M 318.339844 252.136719 C 337.835938 251.875 355.238281 256.980469 372.441406 262.996094 C 382.980469 266.660156 393.378906 270.585938 404.175781 273.335938 C 423.605469 278.042969 442.382813 276.34375 460.960938 269.148438 C 474.175781 264.042969 487.386719 258.8125 501.261719 255.667969 C 542.996094 246.113281 580.417969 255.539063 614.050781 281.3125 C 623.335938 288.253906 631.648438 296.230469 639.035156 305.128906 C 642.046875 308.53125 641.917969 309.316406 637.992188 311.800781 C 603.1875 332.996094 582.777344 364.007813 579.238281 404.699219 C 575.84375 442.644531 587.484375 475.878906 613.847656 503.617188 C 625.296875 515.65625 638.84375 524.683594 654.085938 531.226563 C 658.402344 532.929688 658.597656 533.585938 656.769531 537.769531 C 639.691406 577.15625 617.058594 613.527344 588.925781 645.976563 C 579.238281 656.972656 568.253906 666.910156 555.171875 674.105469 C 534.757813 685.488281 513.6875 685.621094 492.425781 676.59375 C 483.660156 672.929688 475.222656 668.351563 466.191406 665.34375 C 436.820313 656.054688 407.902344 657.230469 379.441406 669.003906 C 371.984375 672.144531 364.65625 675.546875 357.066406 678.292969 C 329.59375 688.503906 304.859375 682.21875 282.359375 664.425781 C 268.617188 653.566406 257.371094 640.484375 247.03125 626.480469 C 223.21875 594.292969 204.441406 559.355469 191.75 521.410156 C 182.652344 494.328125 176.898438 466.460938 175.390625 437.808594 C 173.628906 406.398438 176.113281 375.390625 188.675781 346.214844 C 208.5 300.679688 242.054688 269.671875 290.210938 255.667969 C 299.628906 252.921875 309.308594 251.742188 318.339844 252.136719 "/>
<path style=" stroke:none;fill-rule:evenodd;fill:rgb(100%,100%,100%);fill-opacity:1;" d="M 524.21875 133.066406 C 524.023438 160.023438 515.652344 182.660156 501.910156 203.335938 C 486.273438 226.621094 465.078125 242.847656 438.320313 251.613281 C 430.082031 254.226563 421.707031 255.667969 413.074219 255.667969 C 409.671875 255.667969 408.425781 254.363281 408.101563 250.960938 C 405.871094 231.328125 410.324219 213.015625 418.566406 195.609375 C 434.917969 160.941406 462.003906 138.433594 497.597656 125.484375 C 504.792969 122.996094 512.121094 121.683594 519.710938 120.503906 C 522.914063 119.855469 523.570313 121.945313 523.765625 124.304688 C 524.023438 127.707031 524.546875 131.371094 524.21875 133.066406 "/>
</g>
</svg>
